# xmcd
#
# Track frame offsets: 
#        150
#        13936
#        29543
#        44154
#        59876
#        76332
#        92952
#        112261
#        125095
#        140177
#
# Disc length: 2032 seconds
#
# Revision: 0
# Processed by: cddbd v1.5.2PL0 Copyright (c) Steve Scherf et al.
# Submitted via: ExactAudioCopy v1.3
#
DISCID=a407ee0a
DTITLE=Canned Heat - Kings Of The Boogie
DYEAR=1981
DGENRE=Blues Rock
TTITLE0=Kings Of The Boogie
TTITLE1=Stoned Bad Street Fighting Man
TTITLE2=So Fine
TTITLE3=You Can't Get Close To Me
TTITLE4=Hell's Just On Down The Road
TTITLE5=I Was Wrong
TTITLE6=Little Crystal
TTITLE7=Dog House Blues
TTITLE8=Sleepy Hollow Baby
TTITLE9=Chicken Shack
EXTD=
EXTT0=
EXTT1=
EXTT2=
EXTT3=
EXTT4=
EXTT5=
EXTT6=
EXTT7=
EXTT8=
EXTT9=
PLAYORDER=
